<?xml version="1.0" encoding="UTF-8" standalone="no" ?>
<!DOCTYPE svg PUBLIC "-//W3C//DTD SVG 1.1//EN" "http://www.w3.org/Graphics/SVG/1.1/DTD/svg11.dtd">
<svg xmlns="http://www.w3.org/2000/svg" xmlns:xlink="http://www.w3.org/1999/xlink" version="1.1" width="30px" height="30px" viewBox="0 0 820.82 820.82" xml:space="preserve">
<desc>Created with Fabric.js 2.4.6</desc>
<defs>
</defs>
<rect x="0" y="0" width="100%" height="100%" fill="#ffffff"></rect>
<g transform="matrix(1 0 0 1 412.67 411.75)" style=""  >
	<g transform="matrix(31.59 0 0 31.59 410.79 177.48)"  >
<line style="stroke: rgb(0,0,0); stroke-width: 2; stroke-dasharray: none; stroke-linecap: round; stroke-dashoffset: 0; stroke-linejoin: miter; stroke-miterlimit: 10; fill: none; fill-rule: nonzero; opacity: 0;"  x1="0" y1="5.5" x2="0" y2="-5.5" />
</g>
	<g transform="matrix(31.59 0 0 31.59 -410.8 177.48)"  >
<line style="stroke: rgb(0,0,0); stroke-width: 2; stroke-dasharray: none; stroke-linecap: round; stroke-dashoffset: 0; stroke-linejoin: miter; stroke-miterlimit: 10; fill: none; fill-rule: nonzero; opacity: 0;"  x1="0" y1="5.5" x2="0" y2="-5.5" />
</g>
	<g transform="matrix(31.47 0 0 31.47 410.29 176.36)"  >
<line style="stroke: rgb(0,0,0); stroke-width: 2; stroke-dasharray: none; stroke-linecap: round; stroke-dashoffset: 0; stroke-linejoin: miter; stroke-miterlimit: 10; fill: none; fill-rule: nonzero; opacity: 0;"  x1="0" y1="5.5" x2="0" y2="-5.5" />
</g>
	<g transform="matrix(31.47 0 0 31.47 -407.76 178.38)"  >
<line style="stroke: rgb(0,0,0); stroke-width: 2; stroke-dasharray: none; stroke-linecap: round; stroke-dashoffset: 0; stroke-linejoin: miter; stroke-miterlimit: 10; fill: none; fill-rule: nonzero; opacity: 0;"  x1="0" y1="5.5" x2="0" y2="-5.5" />
</g>
	<g transform="matrix(1.61 0 0 1.61 -0.93 0)"  >
<path style="stroke: none; stroke-width: 1; stroke-dasharray: none; stroke-linecap: butt; stroke-dashoffset: 0; stroke-linejoin: round; stroke-miterlimit: 2; fill: rgb(0,0,0); fill-rule: evenodd; opacity: 1;"  transform=" translate(-256, -256)" d="M 256 0 c 141.29 0 256 114.71 256 256 c 0 141.29 -114.71 256 -256 256 c -141.29 0 -256 -114.71 -256 -256 c 0 -141.29 114.71 -256 256 -256 Z m -45.091 392.158 c 113.283 0 175.224 -93.87 175.224 -175.223 c 0 -2.682 0 -5.364 -0.128 -7.919 c 12.005 -8.684 22.478 -19.54 30.779 -31.928 c -10.983 4.853 -22.861 8.174 -35.377 9.706 c 12.772 -7.663 22.478 -19.668 27.076 -34.099 c -11.878 7.024 -25.032 12.132 -39.081 14.942 c -11.239 -12.005 -27.203 -19.412 -44.955 -19.412 c -33.972 0 -61.558 27.586 -61.558 61.558 c 0 4.853 0.511 9.578 1.66 14.048 c -51.213 -2.554 -96.552 -27.075 -126.947 -64.368 c -5.237 9.068 -8.302 19.668 -8.302 30.907 c 0 21.328 10.856 40.23 27.459 51.213 c -10.09 -0.255 -19.541 -3.065 -27.842 -7.662 l 0 0.766 c 0 29.885 21.2 54.661 49.425 60.409 c -5.108 1.404 -10.6 2.171 -16.219 2.171 c -3.96 0 -7.791 -0.383 -11.622 -1.15 c 7.79 24.521 30.523 42.274 57.471 42.784 c -21.073 16.476 -47.637 26.31 -76.501 26.31 c -4.981 0 -9.834 -0.256 -14.687 -0.894 c 26.948 17.624 59.387 27.841 94.125 27.841 Z" stroke-linecap="round" />
</g>
</g>
</svg>
